<svg width="29" height="29" viewBox="0 0 29 29" fill="none" xmlns="http://www.w3.org/2000/svg">
<path d="M24.1341 22.4994C24.0422 22.5001 23.951 22.4827 23.8658 22.4481C23.7806 22.4136 23.7031 22.3626 23.6376 22.2981C23.5721 22.2335 23.52 22.1568 23.4842 22.0721C23.4484 21.9874 23.4296 21.8965 23.4289 21.8046L23.3443 10.3133C23.3429 10.1276 23.4153 9.94903 23.5456 9.81679C23.6759 9.68455 23.8534 9.60949 24.0391 9.60812C24.2247 9.60676 24.4033 9.67919 24.5356 9.8095C24.6678 9.9398 24.7429 10.1173 24.7442 10.3029L24.8289 21.7943C24.8303 21.9799 24.7578 22.1585 24.6275 22.2908C24.4972 22.423 24.3197 22.4981 24.1341 22.4994Z" fill="#FF6961"/>
<path d="M24.1635 26.4893C23.9778 26.4907 23.7993 26.4183 23.667 26.288C23.5348 26.1577 23.4597 25.9802 23.4584 25.7945L23.4421 23.5896C23.4407 23.4039 23.5132 23.2253 23.6435 23.0931C23.7738 22.9609 23.9513 22.8858 24.1369 22.8844C24.3226 22.8831 24.5012 22.9555 24.6334 23.0858C24.7656 23.2161 24.8407 23.3936 24.8421 23.5793L24.8583 25.7842C24.8597 25.9698 24.7872 26.1484 24.6569 26.2807C24.5266 26.4129 24.3491 26.488 24.1635 26.4893Z" fill="#FF6961"/>
<path d="M14.1146 16.5064C14.0185 16.5046 13.9236 16.4855 13.8342 16.4502L2.87889 11.7007C2.74761 11.6539 2.63297 11.5696 2.54919 11.4582C2.4654 11.3468 2.41617 11.2133 2.4076 11.0742C2.4073 10.9411 2.44373 10.8105 2.51288 10.6968C2.58203 10.583 2.68122 10.4906 2.79952 10.4296L13.6799 5.01764C13.7707 4.97347 13.8702 4.95016 13.9711 4.94941C14.072 4.94867 14.1719 4.97051 14.2633 5.01335L25.2174 9.59943C25.3384 9.65555 25.4418 9.74355 25.5166 9.85399C25.5914 9.96442 25.6347 10.0931 25.642 10.2263C25.6434 10.3582 25.6087 10.488 25.5417 10.6016C25.4746 10.7151 25.3778 10.8083 25.2617 10.8708L14.382 16.3761C14.3045 16.4403 14.2129 16.485 14.1146 16.5064ZM4.82219 11.0097L14.1037 15.0248L23.3328 10.3483L14.0403 6.41503L4.82219 11.0097Z" fill="#1B4A52"/>
<path d="M14.168 23.7512C10.8548 23.7757 7.92879 22.5255 6.49011 20.4477C6.40719 20.3322 6.3614 20.1942 6.35886 20.052L6.30496 12.7372C6.30359 12.5516 6.37603 12.373 6.50634 12.2407C6.63664 12.1085 6.81414 12.0334 6.99979 12.0321C7.18543 12.0307 7.36402 12.1031 7.49626 12.2334C7.6285 12.3638 7.70356 12.5412 7.70492 12.7269L7.75719 19.82C8.56599 20.6949 9.56118 21.3766 10.6691 21.8147C11.777 22.2529 12.9693 22.4363 14.1577 22.3513L14.391 22.3496C17.1093 22.3295 19.4233 21.2858 20.4969 19.7378L20.4446 12.633C20.4432 12.4474 20.5156 12.2688 20.646 12.1366C20.7763 12.0043 20.9538 11.9293 21.1394 11.9279C21.325 11.9265 21.5036 11.999 21.6359 12.1293C21.7681 12.2596 21.8432 12.4371 21.8445 12.6227L21.8984 19.9375C21.8981 20.0707 21.8585 20.2009 21.7845 20.3117C20.5278 22.3393 17.7141 23.6551 14.4247 23.7494L14.168 23.7512Z" fill="#1B4A52"/>
<path d="M24.1496 24.5994C23.9628 24.603 23.7821 24.5331 23.6464 24.4048L22.718 23.4899C22.588 23.358 22.5146 23.1807 22.5132 22.9956C22.5118 22.8104 22.5827 22.632 22.7107 22.4983L23.6256 21.5698C23.7574 21.4399 23.9347 21.3664 24.1199 21.365C24.305 21.3637 24.4834 21.4345 24.6172 21.5625L25.5456 22.4774C25.6128 22.5411 25.6664 22.6177 25.7033 22.7026C25.7401 22.7876 25.7595 22.8791 25.7602 22.9716C25.7608 23.0642 25.7428 23.156 25.7072 23.2414C25.6716 23.3269 25.6192 23.4043 25.5529 23.469L24.6381 24.3974C24.574 24.4616 24.4978 24.5125 24.414 24.5472C24.3301 24.5818 24.2403 24.5996 24.1496 24.5994Z" fill="#FF6961"/>
</svg>
